<svg xmlns="http://www.w3.org/2000/svg" xmlns:xlink="http://www.w3.org/1999/xlink" version="1.1" > 
    <symbol id="facebook-icon" viewBox="0 0 264 512">
        <path d="M76.7 512V283H0v-91h76.7v-71.7C76.7 42.4 124.3 0 193.8 0c33.3 0 61.9 2.5 70.2 3.6V85h-48.2c-37.8 0-45.1 18-45.1 44.3V192H256l-11.7 91h-73.6v229"/>
    </symbol>
    <symbol id="google-plus-icon" viewBox="0 0 640 512">
        <path  d="M386.061 228.496c1.834 9.692 3.143 19.384 3.143 31.956C389.204 370.205 315.599 448 204.8 448c-106.084 0-192-85.915-192-192s85.916-192 192-192c51.864 0 95.083 18.859 128.611 50.292l-52.126 50.03c-14.145-13.621-39.028-29.599-76.485-29.599-65.484 0-118.92 54.221-118.92 121.277 0 67.056 53.436 121.277 118.92 121.277 75.961 0 104.513-54.745 108.965-82.773H204.8v-66.009h181.261zm185.406 6.437V179.2h-56.001v55.733h-55.733v56.001h55.733v55.733h56.001v-55.733H627.2v-56.001h-55.733z"/>
    </symbol>
    <symbol id="twitter-icon" viewBox="0 0 512 512">
        <path d="M459.37 151.716c.325 4.548.325 9.097.325 13.645 0 138.72-105.583 298.558-298.558 298.558-59.452 0-114.68-17.219-161.137-47.106 8.447.974 16.568 1.299 25.34 1.299 49.055 0 94.213-16.568 130.274-44.832-46.132-.975-84.792-31.188-98.112-72.772 6.498.974 12.995 1.624 19.818 1.624 9.421 0 18.843-1.3 27.614-3.573-48.081-9.747-84.143-51.98-84.143-102.985v-1.299c13.969 7.797 30.214 12.67 47.431 13.319-28.264-18.843-46.781-51.005-46.781-87.391 0-19.492 5.197-37.36 14.294-52.954 51.655 63.675 129.3 105.258 216.365 109.807-1.624-7.797-2.599-15.918-2.599-24.04 0-57.828 46.782-104.934 104.934-104.934 30.213 0 57.502 12.67 76.67 33.137 23.715-4.548 46.456-13.32 66.599-25.34-7.798 24.366-24.366 44.833-46.132 57.827 21.117-2.273 41.584-8.122 60.426-16.243-14.292 20.791-32.161 39.308-52.628 54.253z"/>
    </symbol>
    <symbol id="linkedin-icon" viewBox="0 0 448 512">
        <path  d="M100.3 448H7.4V148.9h92.9V448zM53.8 108.1C24.1 108.1 0 83.5 0 53.8S24.1 0 53.8 0s53.8 24.1 53.8 53.8-24.1 54.3-53.8 54.3zM448 448h-92.7V302.4c0-34.7-.7-79.2-48.3-79.2-48.3 0-55.7 37.7-55.7 76.7V448h-92.8V148.9h89.1v40.8h1.3c12.4-23.5 42.7-48.3 87.9-48.3 94 0 111.3 61.9 111.3 142.3V448h-.1z"/>
    </symbol>
    <symbol id="dribble-icon" viewBox="0 0 512 512">
        <path d="M256 8C119.252 8 8 119.252 8 256s111.252 248 248 248 248-111.252 248-248S392.748 8 256 8zm163.97 114.366c29.503 36.046 47.369 81.957 47.835 131.955-6.984-1.477-77.018-15.682-147.502-6.818-5.752-14.041-11.181-26.393-18.617-41.614 78.321-31.977 113.818-77.482 118.284-83.523zM396.421 97.87c-3.81 5.427-35.697 48.286-111.021 76.519-34.712-63.776-73.185-116.168-79.04-124.008 67.176-16.193 137.966 1.27 190.061 47.489zm-230.48-33.25c5.585 7.659 43.438 60.116 78.537 122.509-99.087 26.313-186.36 25.934-195.834 25.809C62.38 147.205 106.678 92.573 165.941 64.62zM44.17 256.323c0-2.166.043-4.322.108-6.473 9.268.19 111.92 1.513 217.706-30.146 6.064 11.868 11.857 23.915 17.174 35.949-76.599 21.575-146.194 83.527-180.531 142.306C64.794 360.405 44.17 310.73 44.17 256.323zm81.807 167.113c22.127-45.233 82.178-103.622 167.579-132.756 29.74 77.283 42.039 142.053 45.189 160.638-68.112 29.013-150.015 21.053-212.768-27.882zm248.38 8.489c-2.171-12.886-13.446-74.897-41.152-151.033 66.38-10.626 124.7 6.768 131.947 9.055-9.442 58.941-43.273 109.844-90.795 141.978z"/>
    </symbol>
    <symbol id="pinterest-icon" viewBox="0 0 384 512">
        <path d="M204 6.5C101.4 6.5 0 74.9 0 185.6 0 256 39.6 296 63.6 296c9.9 0 15.6-27.6 15.6-35.4 0-9.3-23.7-29.1-23.7-67.8 0-80.4 61.2-137.4 140.4-137.4 68.1 0 118.5 38.7 118.5 109.8 0 53.1-21.3 152.7-90.3 152.7-24.9 0-46.2-18-46.2-43.8 0-37.8 26.4-74.4 26.4-113.4 0-66.2-93.9-54.2-93.9 25.8 0 16.8 2.1 35.4 9.6 50.7-13.8 59.4-42 147.9-42 209.1 0 18.9 2.7 37.5 4.5 56.4 3.4 3.8 1.7 3.4 6.9 1.5 50.4-69 48.6-82.5 71.4-172.8 12.3 23.4 44.1 36 69.3 36 106.2 0 153.9-103.5 153.9-196.8C384 71.3 298.2 6.5 204 6.5z"/>
    </symbol>
    <symbol id="instagram-icon" viewBox="0 0 448 512">
        <path d="M224.1 141c-63.6 0-114.9 51.3-114.9 114.9s51.3 114.9 114.9 114.9S339 319.5 339 255.9 287.7 141 224.1 141zm0 189.6c-41.1 0-74.7-33.5-74.7-74.7s33.5-74.7 74.7-74.7 74.7 33.5 74.7 74.7-33.6 74.7-74.7 74.7zm146.4-194.3c0 14.9-12 26.8-26.8 26.8-14.9 0-26.8-12-26.8-26.8s12-26.8 26.8-26.8 26.8 12 26.8 26.8zm76.1 27.2c-1.7-35.9-9.9-67.7-36.2-93.9-26.2-26.2-58-34.4-93.9-36.2-37-2.1-147.9-2.1-184.9 0-35.8 1.7-67.6 9.9-93.9 36.1s-34.4 58-36.2 93.9c-2.1 37-2.1 147.9 0 184.9 1.7 35.9 9.9 67.7 36.2 93.9s58 34.4 93.9 36.2c37 2.1 147.9 2.1 184.9 0 35.9-1.7 67.7-9.9 93.9-36.2 26.2-26.2 34.4-58 36.2-93.9 2.1-37 2.1-147.8 0-184.8zM398.8 388c-7.8 19.6-22.9 34.7-42.6 42.6-29.5 11.7-99.5 9-132.1 9s-102.7 2.6-132.1-9c-19.6-7.8-34.7-22.9-42.6-42.6-11.7-29.5-9-99.5-9-132.1s-2.6-102.7 9-132.1c7.8-19.6 22.9-34.7 42.6-42.6 29.5-11.7 99.5-9 132.1-9s102.7-2.6 132.1 9c19.6 7.8 34.7 22.9 42.6 42.6 11.7 29.5 9 99.5 9 132.1s2.7 102.7-9 132.1z"/>
    </symbol>
    
    <view id="facebook" width="15" height="15" viewBox="0 0 15 15"/>
    <view id="google-plus" width="15" height="15" viewBox="0 15 15 15"/>
    <view id="twitter" width="15" height="15" viewBox="0 30 15 15"/>
    <view id="linkedin" width="15" height="15" viewBox="0 45 15 15 "/>
    <view id="dribble" width="15" height="15" viewBox="0 60 15 15"/>
    <view id="pinterest" width="15" height="15" viewBox="0 75 15 15"/>
    <view id="instagram" width="15" height="15" viewBox="0 90 15 15"/>

     <view id="facebook-active" width="15" height="15" viewBox="0 105 15 15"/>
    <view id="google-plus-active" width="15" height="15" viewBox="0 120 15 15"/>
    <view id="twitter-active" width="15" height="15" viewBox="0 135 15 15"/>
    <view id="linkedin-active" width="15" height="15" viewBox="0 150 15 15 "/>
    <view id="dribble-active" width="15" height="15" viewBox="0 165 15 15"/>
    <view id="pinterest-active" width="15" height="15" viewBox="0 180 15 15"/>
    <view id="instagram-active" width="15" height="15" viewBox="0 195 15 15"/>

    <use xlink:href="#facebook-icon" fill="#00BFF3" width="15" height="15" x="0" y="0"></use>
     <use xlink:href="#google-plus-icon" fill="#00BFF3" width="15" height="15" x="0" y="15"></use>
     <use xlink:href="#twitter-icon" fill="#00BFF3" width="15" height="15" x="0" y="30"></use>
     <use xlink:href="#linkedin-icon" fill="#00BFF3" width="15" height="15" x="0" y="45"></use>
     <use xlink:href="#dribble-icon" fill="#00BFF3" width="15" height="15" x="0" y="60"></use>
     <use xlink:href="#pinterest-icon" fill="#00BFF3" width="15" height="15" x="0" y="75"></use>
     <use xlink:href="#instagram-icon" fill="#00BFF3" width="15" height="15" x="0" y="90"></use>

     <use xlink:href="#facebook-icon" fill="rgb(23, 78, 197)" width="15" height="15" x="0" y="105"></use>
     <use xlink:href="#google-plus-icon" fill="#CE3525" width="15" height="15" x="0" y="120"></use>
     <use xlink:href="#twitter-icon" fill="#4AB3F4" width="15" height="15" x="0" y="135"></use>
     <use xlink:href="#linkedin-icon" fill="#0274B3" width="15" height="15" x="0" y="150"></use>
     <use xlink:href="#dribble-icon" fill="#EA4C89" width="15" height="15" x="0" y="165"></use>
     <use xlink:href="#pinterest-icon" fill="#E8334E" width="15" height="15" x="0" y="180"></use>
     <use xlink:href="#instagram-icon" fill="#FA2148" width="15" height="15" x="0" y="195"></use>

</svg>
