<?xml version="1.0" standalone="no"?>
<!DOCTYPE svg PUBLIC "-//W3C//DTD SVG 20010904//EN"
 "http://www.w3.org/TR/2001/REC-SVG-20010904/DTD/svg10.dtd">
<svg version="1.0" xmlns="http://www.w3.org/2000/svg"
 width="358.000000pt" height="358.000000pt" viewBox="0 0 358.000000 358.000000"
 preserveAspectRatio="xMidYMid meet">
<metadata>
Created by potrace 1.11, written by Peter Selinger 2001-2013
</metadata>
<g transform="translate(0.000000,358.000000) scale(0.100000,-0.100000)"
fill="#000000" stroke="none">
<path d="M205 2202 c-104 -36 -162 -105 -172 -206 -8 -75 15 -134 72 -184 43
-38 98 -59 246 -97 109 -27 154 -83 127 -155 -34 -91 -190 -109 -331 -36 -76
39 -71 40 -120 -25 -26 -34 -26 -37 -10 -52 35 -31 141 -76 207 -88 126 -22
255 3 331 64 48 38 78 107 77 176 0 68 -11 98 -51 144 -40 44 -98 72 -220 102
-116 30 -158 50 -177 86 -18 36 -18 53 1 93 21 44 75 68 148 67 60 -1 162 -25
172 -42 14 -22 42 -6 68 40 15 27 27 52 27 55 0 3 -17 14 -38 25 -96 49 -268
65 -357 33z"/>
<path d="M1559 2200 c-13 -51 -16 -50 127 -50 l134 0 0 -395 0 -395 30 0 30 0
0 395 0 395 130 0 130 0 0 28 0 27 -290 0 c-159 1 -291 -2 -291 -5z"/>
<path d="M1387 1968 c-20 -4 -60 -19 -87 -33 -43 -22 -51 -23 -55 -10 -3 8 -7
22 -10 30 -3 11 -19 15 -60 15 -30 0 -55 -3 -56 -7 -1 -5 -2 -101 -3 -215 0
-113 -3 -209 -6 -211 -22 -20 -119 -58 -151 -59 -46 0 -86 23 -94 55 -3 12 -7
114 -8 227 l-2 205 -62 3 -63 3 -1 -58 c-2 -281 1 -395 12 -433 15 -50 69
-106 112 -119 60 -16 142 -6 206 25 l59 30 6 -28 c5 -27 8 -28 66 -28 l60 0 0
216 0 215 55 25 c30 14 66 27 81 30 37 7 92 -14 106 -39 8 -15 12 -91 12 -232
l1 -210 30 -5 c17 -3 46 -3 65 0 l35 5 -1 220 c-1 233 -3 255 -28 303 -35 68
-123 101 -219 80z"/>
<path d="M2236 1950 c-59 -23 -91 -52 -118 -105 -18 -35 -21 -58 -21 -182 0
-129 2 -146 24 -189 33 -67 81 -102 158 -116 120 -22 230 22 272 108 18 38 21
64 23 176 2 169 -9 211 -68 264 -71 65 -174 81 -270 44z m193 -54 c16 -9 43
-33 58 -53 28 -36 28 -38 28 -178 0 -121 -3 -147 -19 -177 -52 -96 -213 -113
-298 -31 -37 35 -48 96 -45 235 3 109 5 119 31 152 42 56 94 78 168 71 26 -2
60 -11 77 -19z"/>
<path d="M2692 1956 c-9 -11 -8 -434 1 -473 9 -35 28 -66 56 -90 65 -57 160
-55 279 5 l82 42 0 -40 c0 -36 2 -40 25 -40 l25 0 0 299 c0 310 -1 320 -41
300 -13 -6 -15 -38 -14 -229 0 -121 -2 -224 -5 -228 -13 -19 -94 -63 -145 -80
-88 -30 -153 -15 -192 45 -19 28 -22 78 -23 364 0 117 -1 127 -20 132 -10 3
-23 0 -28 -7z"/>
<path d="M3313 1962 c-6 -5 -10 -119 -10 -304 l0 -298 29 0 28 0 0 228 c0 206
2 230 18 243 25 22 111 58 157 67 36 7 40 11 43 40 2 18 -1 32 -6 32 -28 0
-123 -36 -161 -62 -45 -30 -55 -30 -57 3 -3 43 -5 47 -17 52 -8 3 -18 2 -24
-1z"/>
</g>
</svg>
